<svg xmlns="http://www.w3.org/2000/svg" xmlns:xlink="http://www.w3.org/1999/xlink" xmlns:lucid="lucid" width="1512.76" height="2140.38"><g transform="translate(0 0)" lucid:page-tab-id="AdyA8tYu~5Qq"><path d="M0 0h1512.76v2140.38H0z" fill="#fff"/><path d="M505.88 901c0-2.76 2.24-5 5-5h190c2.76 0 5 2.24 5 5v94c0 2.76-2.24 5-5 5h-190c-2.76 0-5-2.24-5-5z" fill="#fff"/><path d="M505.88 896h200v40h-200z" fill="#ccc"/><path d="M505.88 901c0-2.76 2.24-5 5-5h190c2.76 0 5 2.24 5 5v94c0 2.76-2.24 5-5 5h-190c-2.76 0-5-2.24-5-5zM505.88 936h200M565.88 936v64" stroke="#666" stroke-width="2" fill="none"/><use xlink:href="#a" transform="matrix(1,0,0,1,515.8813108945969,896) translate(60.574999999999996 23.6)"/><use xlink:href="#b" transform="matrix(1,0,0,1,510.88131089459694,938.5) translate(13 17.1)"/><use xlink:href="#c" transform="matrix(1,0,0,1,570.8813108945969,938.5) translate(0 17.1)"/><use xlink:href="#d" transform="matrix(1,0,0,1,570.8813108945969,970.5) translate(0 17.1)"/><path d="M505.88 405c0-2.76 2.24-5 5-5h190c2.76 0 5 2.24 5 5v318c0 2.76-2.24 5-5 5h-190c-2.76 0-5-2.24-5-5z" fill="#fff"/><path d="M505.88 400h200v40h-200z" fill="#ccc"/><path d="M505.88 405c0-2.76 2.24-5 5-5h190c2.76 0 5 2.24 5 5v318c0 2.76-2.24 5-5 5h-190c-2.76 0-5-2.24-5-5zM505.88 440h200M565.88 440v288" stroke="#666" stroke-width="2" fill="none"/><use xlink:href="#e" transform="matrix(1,0,0,1,515.8813108945969,400) translate(60.525 23.6)"/><use xlink:href="#b" transform="matrix(1,0,0,1,510.88131089459694,442.5) translate(13 17.1)"/><use xlink:href="#f" transform="matrix(1,0,0,1,570.8813108945969,442.5) translate(0 17.1)"/><use xlink:href="#g" transform="matrix(1,0,0,1,510.88131089459694,474.5) translate(13.524999999999999 17.1)"/><use xlink:href="#h" transform="matrix(1,0,0,1,570.8813108945969,474.5) translate(0 17.1)"/><use xlink:href="#g" transform="matrix(1,0,0,1,510.88131089459694,506.5) translate(13.524999999999999 17.1)"/><use xlink:href="#c" transform="matrix(1,0,0,1,570.8813108945969,506.5) translate(0 17.1)"/><use xlink:href="#i" transform="matrix(1,0,0,1,570.8813108945969,538.5) translate(0 17.1)"/><use xlink:href="#j" transform="matrix(1,0,0,1,570.8813108945969,570.5) translate(0 17.1)"/><use xlink:href="#d" transform="matrix(1,0,0,1,570.8813108945969,602.5) translate(0 17.1)"/><use xlink:href="#k" transform="matrix(1,0,0,1,570.8813108945969,634.5) translate(0 17.1)"/><use xlink:href="#l" transform="matrix(1,0,0,1,570.8813108945969,666.5) translate(0 17.1)"/><use xlink:href="#m" transform="matrix(1,0,0,1,570.8813108945969,698.5) translate(0 17.1)"/><path d="M605.88 876.76V729" stroke="#999" stroke-width="2" fill="none"/><path d="M605.88 891.76l-4.63-14.26h9.27z" fill="#999"/><path d="M605.88 895l-6-18.5h12zm-3.26-16.5l3.26 10.03 3.26-10.03zM616.78 729.9l-10.9 21.78-10.9-21.8 1.8-.88 9.1 18.2 9.1-18.2z" fill="#999"/><path d="M505.88 125c0-2.76 2.24-5 5-5h190c2.76 0 5 2.24 5 5v190c0 2.76-2.24 5-5 5h-190c-2.76 0-5-2.24-5-5z" fill="#fff"/><path d="M505.88 120h200v40h-200z" fill="#ccc"/><path d="M505.88 125c0-2.76 2.24-5 5-5h190c2.76 0 5 2.24 5 5v190c0 2.76-2.24 5-5 5h-190c-2.76 0-5-2.24-5-5zM505.88 160h200M565.88 160v160" stroke="#666" stroke-width="2" fill="none"/><use xlink:href="#n" transform="matrix(1,0,0,1,515.8813108945969,120) translate(71.5 23.6)"/><use xlink:href="#b" transform="matrix(1,0,0,1,510.88131089459694,162.5) translate(13 17.1)"/><use xlink:href="#h" transform="matrix(1,0,0,1,570.8813108945969,162.5) translate(0 17.1)"/><use xlink:href="#d" transform="matrix(1,0,0,1,570.8813108945969,194.5) translate(0 17.1)"/><use xlink:href="#o" transform="matrix(1,0,0,1,570.8813108945969,226.5) translate(0 17.1)"/><use xlink:href="#p" transform="matrix(1,0,0,1,570.8813108945969,258.5) translate(0 17.1)"/><use xlink:href="#m" transform="matrix(1,0,0,1,570.8813108945969,290.5) translate(0 17.1)"/><path d="M605.88 399v-78" stroke="#999" stroke-width="2" fill="none"/><path d="M616.78 398.1l-1.8.9-9.1-18.2-9.1 18.2-1.8-.9 10.9-21.78zM616.78 321.9l-10.9 21.78-10.9-21.8 1.8-.88 9.1 18.2 9.1-18.2z" fill="#999"/><path d="M66.88 617c0-2.76 2.24-5 5-5h190c2.76 0 5 2.24 5 5v222c0 2.76-2.24 5-5 5h-190c-2.76 0-5-2.24-5-5z" fill="#fff"/><path d="M66.88 612h200v40h-200z" fill="#ccc"/><path d="M66.88 617c0-2.76 2.24-5 5-5h190c2.76 0 5 2.24 5 5v222c0 2.76-2.24 5-5 5h-190c-2.76 0-5-2.24-5-5zM66.88 652h200M126.88 652v192" stroke="#666" stroke-width="2" fill="none"/><use xlink:href="#q" transform="matrix(1,0,0,1,76.88131089459694,612) translate(57.05 23.6)"/><use xlink:href="#b" transform="matrix(1,0,0,1,71.88131089459694,654.5) translate(13 17.1)"/><use xlink:href="#f" transform="matrix(1,0,0,1,131.88131089459694,654.5) translate(0 17.1)"/><use xlink:href="#g" transform="matrix(1,0,0,1,71.88131089459694,686.5) translate(13.524999999999999 17.1)"/><use xlink:href="#r" transform="matrix(1,0,0,1,131.88131089459694,686.5) translate(0 17.1)"/><use xlink:href="#g" transform="matrix(1,0,0,1,71.88131089459694,718.5) translate(13.524999999999999 17.1)"/><use xlink:href="#c" transform="matrix(1,0,0,1,131.88131089459694,718.5) translate(0 17.1)"/><use xlink:href="#d" transform="matrix(1,0,0,1,131.88131089459694,750.5) translate(0 17.1)"/><use xlink:href="#s" transform="matrix(1,0,0,1,131.88131089459694,782.5) translate(0 17.1)"/><use xlink:href="#t" transform="matrix(1,0,0,1,131.88131089459694,814.5) translate(0 17.1)"/><path d="M66.88 981c0-2.76 2.24-5 5-5h190c2.76 0 5 2.24 5 5v126c0 2.76-2.24 5-5 5h-190c-2.76 0-5-2.24-5-5z" fill="#fff"/><path d="M66.88 976h200v40h-200z" fill="#ccc"/><path d="M66.88 981c0-2.76 2.24-5 5-5h190c2.76 0 5 2.24 5 5v126c0 2.76-2.24 5-5 5h-190c-2.76 0-5-2.24-5-5zM66.88 1016h200M126.88 1016v96" stroke="#666" stroke-width="2" fill="none"/><use xlink:href="#u" transform="matrix(1,0,0,1,76.88131089459694,976) translate(50.05 23.6)"/><use xlink:href="#b" transform="matrix(1,0,0,1,71.88131089459694,1018.5) translate(13 17.1)"/><use xlink:href="#r" transform="matrix(1,0,0,1,131.88131089459694,1018.5) translate(0 17.1)"/><use xlink:href="#g" transform="matrix(1,0,0,1,71.88131089459694,1050.5) translate(13.524999999999999 17.1)"/><use xlink:href="#v" transform="matrix(1,0,0,1,131.88131089459694,1050.5) translate(0 17.1)"/><use xlink:href="#g" transform="matrix(1,0,0,1,71.88131089459694,1082.5) translate(13.524999999999999 17.1)"/><use xlink:href="#w" transform="matrix(1,0,0,1,131.88131089459694,1082.5) translate(0 17.1)"/><path d="M65.88 1032h-35c-2.76 0-5-2.24-5-5V705c0-2.76 2.24-5 5-5h35" stroke="#999" stroke-width="2" fill="none"/><path fill="#fff"/><path d="M46.88 1042h-2v-20h2zM65.88 690.9l-18.2 9.1 18.2 9.1-.9 1.8L43.2 700 65 689.1z" fill="#999"/><path d="M66.88 1401c0-2.76 2.24-5 5-5h190c2.76 0 5 2.24 5 5v126c0 2.76-2.24 5-5 5h-190c-2.76 0-5-2.24-5-5z" fill="#fff"/><path d="M66.88 1396h200v40h-200z" fill="#ccc"/><path d="M66.88 1401c0-2.76 2.24-5 5-5h190c2.76 0 5 2.24 5 5v126c0 2.76-2.24 5-5 5h-190c-2.76 0-5-2.24-5-5zM66.88 1436h200M126.88 1436v96" stroke="#666" stroke-width="2" fill="none"/><use xlink:href="#x" transform="matrix(1,0,0,1,76.88131089459694,1396) translate(36.574999999999996 23.6)"/><use xlink:href="#b" transform="matrix(1,0,0,1,71.88131089459694,1438.5) translate(13 17.1)"/><use xlink:href="#v" transform="matrix(1,0,0,1,131.88131089459694,1438.5) translate(0 17.1)"/><use xlink:href="#d" transform="matrix(1,0,0,1,131.88131089459694,1470.5) translate(0 17.1)"/><use xlink:href="#y" transform="matrix(1,0,0,1,131.88131089459694,1502.5) translate(0 17.1)"/><path d="M66.88 1241c0-2.76 2.24-5 5-5h190c2.76 0 5 2.24 5 5v126c0 2.76-2.24 5-5 5h-190c-2.76 0-5-2.24-5-5z" fill="#fff"/><path d="M66.88 1236h200v40h-200z" fill="#ccc"/><path d="M66.88 1241c0-2.76 2.24-5 5-5h190c2.76 0 5 2.24 5 5v126c0 2.76-2.24 5-5 5h-190c-2.76 0-5-2.24-5-5zM66.88 1276h200M126.88 1276v96" stroke="#666" stroke-width="2" fill="none"/><use xlink:href="#z" transform="matrix(1,0,0,1,76.88131089459694,1236) translate(17.64999999999999 23.6)"/><use xlink:href="#b" transform="matrix(1,0,0,1,71.88131089459694,1278.5) translate(13 17.1)"/><use xlink:href="#w" transform="matrix(1,0,0,1,131.88131089459694,1278.5) translate(0 17.1)"/><use xlink:href="#d" transform="matrix(1,0,0,1,131.88131089459694,1310.5) translate(0 17.1)"/><use xlink:href="#y" transform="matrix(1,0,0,1,131.88131089459694,1342.5) translate(0 17.1)"/><path d="M47.65 1452H30.88c-2.76 0-5-2.24-5-5v-378c0-2.76 2.24-5 5-5h35" stroke="#999" stroke-width="2" fill="none"/><path d="M62.65 1452l-14.27 4.64v-9.28z" fill="#999"/><path d="M65.88 1452l-18.5 6v-12zm-16.5 3.26L59.4 1452l-10.02-3.26zM65.88 1054.9l-18.2 9.1 18.2 9.1-.9 1.8L43.2 1064l21.8-10.9z" fill="#999"/><path d="M47.65 1292H30.88c-2.76 0-5-2.24-5-5v-186c0-2.76 2.24-5 5-5h35" stroke="#999" stroke-width="2" fill="none"/><path d="M62.65 1292l-14.27 4.64v-9.28z" fill="#999"/><path d="M65.88 1292l-18.5 6v-12zm-16.5 3.26L59.4 1292l-10.02-3.26zM65.88 1086.9l-18.2 9.1 18.2 9.1-.9 1.8L43.2 1096l21.8-10.9z" fill="#999"/><path d="M505.88 1121c0-2.76 2.24-5 5-5h190c2.76 0 5 2.24 5 5v222c0 2.76-2.24 5-5 5h-190c-2.76 0-5-2.24-5-5z" fill="#fff"/><path d="M505.88 1116h200v40h-200z" fill="#ccc"/><path d="M505.88 1121c0-2.76 2.24-5 5-5h190c2.76 0 5 2.24 5 5v222c0 2.76-2.24 5-5 5h-190c-2.76 0-5-2.24-5-5zM505.88 1156h200M565.88 1156v192" stroke="#666" stroke-width="2" fill="none"/><use xlink:href="#A" transform="matrix(1,0,0,1,515.8813108945969,1116) translate(52.525 23.6)"/><use xlink:href="#b" transform="matrix(1,0,0,1,510.88131089459694,1158.5) translate(13 17.1)"/><use xlink:href="#f" transform="matrix(1,0,0,1,570.8813108945969,1158.5) translate(0 17.1)"/><use xlink:href="#g" transform="matrix(1,0,0,1,510.88131089459694,1190.5) translate(13.524999999999999 17.1)"/><use xlink:href="#B" transform="matrix(1,0,0,1,570.8813108945969,1190.5) translate(0 17.1)"/><use xlink:href="#g" transform="matrix(1,0,0,1,510.88131089459694,1222.5) translate(13.524999999999999 17.1)"/><use xlink:href="#c" transform="matrix(1,0,0,1,570.8813108945969,1222.5) translate(0 17.1)"/><use xlink:href="#C" transform="matrix(1,0,0,1,570.8813108945969,1254.5) translate(0 17.1)"/><use xlink:href="#s" transform="matrix(1,0,0,1,570.8813108945969,1286.5) translate(0 17.1)"/><use xlink:href="#t" transform="matrix(1,0,0,1,570.8813108945969,1318.5) translate(0 17.1)"/><path d="M505.88 1401c0-2.76 2.24-5 5-5h190c2.76 0 5 2.24 5 5v126c0 2.76-2.24 5-5 5h-190c-2.76 0-5-2.24-5-5z" fill="#fff"/><path d="M505.88 1396h200v40h-200z" fill="#ccc"/><path d="M505.88 1401c0-2.76 2.24-5 5-5h190c2.76 0 5 2.24 5 5v126c0 2.76-2.24 5-5 5h-190c-2.76 0-5-2.24-5-5zM505.88 1436h200M565.88 1436v96" stroke="#666" stroke-width="2" fill="none"/><use xlink:href="#D" transform="matrix(1,0,0,1,515.8813108945969,1396) translate(45.525 23.6)"/><use xlink:href="#b" transform="matrix(1,0,0,1,510.88131089459694,1438.5) translate(13 17.1)"/><use xlink:href="#B" transform="matrix(1,0,0,1,570.8813108945969,1438.5) translate(0 17.1)"/><use xlink:href="#g" transform="matrix(1,0,0,1,510.88131089459694,1470.5) translate(13.524999999999999 17.1)"/><use xlink:href="#E" transform="matrix(1,0,0,1,570.8813108945969,1470.5) translate(0 17.1)"/><use xlink:href="#g" transform="matrix(1,0,0,1,510.88131089459694,1502.5) translate(13.524999999999999 17.1)"/><use xlink:href="#F" transform="matrix(1,0,0,1,570.8813108945969,1502.5) translate(0 17.1)"/><path d="M505.88 1745c0-2.76 2.24-5 5-5h190c2.76 0 5 2.24 5 5v126c0 2.76-2.24 5-5 5h-190c-2.76 0-5-2.24-5-5z" fill="#fff"/><path d="M505.88 1740h200v40h-200z" fill="#ccc"/><path d="M505.88 1745c0-2.76 2.24-5 5-5h190c2.76 0 5 2.24 5 5v126c0 2.76-2.24 5-5 5h-190c-2.76 0-5-2.24-5-5zM505.88 1780h200M565.88 1780v96" stroke="#666" stroke-width="2" fill="none"/><use xlink:href="#G" transform="matrix(1,0,0,1,515.8813108945969,1740) translate(32.05 23.6)"/><use xlink:href="#b" transform="matrix(1,0,0,1,510.88131089459694,1782.5) translate(13 17.1)"/><use xlink:href="#E" transform="matrix(1,0,0,1,570.8813108945969,1782.5) translate(0 17.1)"/><use xlink:href="#C" transform="matrix(1,0,0,1,570.8813108945969,1814.5) translate(0 17.1)"/><use xlink:href="#y" transform="matrix(1,0,0,1,570.8813108945969,1846.5) translate(0 17.1)"/><path d="M505.88 1585c0-2.76 2.24-5 5-5h190c2.76 0 5 2.24 5 5v126c0 2.76-2.24 5-5 5h-190c-2.76 0-5-2.24-5-5z" fill="#fff"/><path d="M505.88 1580h200v40h-200z" fill="#ccc"/><path d="M505.88 1585c0-2.76 2.24-5 5-5h190c2.76 0 5 2.24 5 5v126c0 2.76-2.24 5-5 5h-190c-2.76 0-5-2.24-5-5zM505.88 1620h200M565.88 1620v96" stroke="#666" stroke-width="2" fill="none"/><use xlink:href="#H" transform="matrix(1,0,0,1,515.8813108945969,1580) translate(13.125 23.6)"/><use xlink:href="#b" transform="matrix(1,0,0,1,510.88131089459694,1622.5) translate(13 17.1)"/><use xlink:href="#F" transform="matrix(1,0,0,1,570.8813108945969,1622.5) translate(0 17.1)"/><use xlink:href="#C" transform="matrix(1,0,0,1,570.8813108945969,1654.5) translate(0 17.1)"/><use xlink:href="#y" transform="matrix(1,0,0,1,570.8813108945969,1686.5) translate(0 17.1)"/><path d="M486.65 952h-16.77c-2.76 0-5 2.24-5 5v274c0 2.76 2.24 5 5 5h35" stroke="#999" stroke-width="2" fill="none"/><path d="M501.65 952l-14.27 4.64v-9.28z" fill="#999"/><path d="M504.88 952l-18.5 6v-12zm-16.5 3.26L498.4 952l-10.02-3.26zM504.88 1226.9l-18.2 9.1 18.2 9.1-.9 1.8-21.78-10.9 21.8-10.9z" fill="#999"/><path d="M486.65 952h-95.27c-2.76 0-5-2.24-5-5V737c0-2.76-2.24-5-5-5h-113.5" stroke="#999" stroke-width="2" fill="none"/><path d="M501.65 952l-14.27 4.64v-9.28z" fill="#999"/><path d="M504.88 952l-18.5 6v-12zm-16.5 3.26L498.4 952l-10.02-3.26zM290.56 732l-21.78 10.9-.9-1.8 18.2-9.1-18.2-9.1.9-1.8z" fill="#999"/><path d="M706.88 1452h35c2.76 0 5-2.24 5-5v-238c0-2.76-2.24-5-5-5h-35" stroke="#999" stroke-width="2" fill="none"/><path fill="#fff"/><path d="M727.88 1462h-2v-20h2zM729.56 1204l-21.78 10.9-.9-1.8 18.2-9.1-18.2-9.1.9-1.8z" fill="#999"/><path d="M486.65 1636h-16.77c-2.76 0-5-2.24-5-5v-110c0-2.76 2.24-5 5-5h35" stroke="#999" stroke-width="2" fill="none"/><path d="M501.65 1636l-14.27 4.64v-9.28z" fill="#999"/><path d="M504.88 1636l-18.5 6v-12zm-16.5 3.26l10.03-3.26-10.02-3.26zM504.88 1506.9l-18.2 9.1 18.2 9.1-.9 1.8-21.78-10.9 21.8-10.9z" fill="#999"/><path d="M486.65 1796h-16.77c-2.76 0-5-2.24-5-5v-302c0-2.76 2.24-5 5-5h35" stroke="#999" stroke-width="2" fill="none"/><path d="M501.65 1796l-14.27 4.64v-9.28z" fill="#999"/><path d="M504.88 1796l-18.5 6v-12zm-16.5 3.26l10.03-3.26-10.02-3.26zM504.88 1474.9l-18.2 9.1 18.2 9.1-.9 1.8-21.78-10.9 21.8-10.9z" fill="#999"/><path fill="#fff"/><path d="M485.43 1494h-2v-20h2z" fill="#999"/><path d="M905.88 617c0-2.76 2.24-5 5-5h190c2.76 0 5 2.24 5 5v286c0 2.76-2.24 5-5 5h-190c-2.76 0-5-2.24-5-5z" fill="#fff"/><path d="M905.88 612h200v40h-200z" fill="#ccc"/><path d="M905.88 617c0-2.76 2.24-5 5-5h190c2.76 0 5 2.24 5 5v286c0 2.76-2.24 5-5 5h-190c-2.76 0-5-2.24-5-5zM905.88 652h200M965.88 652v256" stroke="#666" stroke-width="2" fill="none"/><use xlink:href="#I" transform="matrix(1,0,0,1,915.8813108945969,612) translate(56.925 23.6)"/><use xlink:href="#b" transform="matrix(1,0,0,1,910.8813108945969,654.5) translate(13 17.1)"/><use xlink:href="#f" transform="matrix(1,0,0,1,970.8813108945969,654.5) translate(0 17.1)"/><use xlink:href="#g" transform="matrix(1,0,0,1,910.8813108945969,686.5) translate(13.524999999999999 17.1)"/><use xlink:href="#c" transform="matrix(1,0,0,1,970.8813108945969,686.5) translate(0 17.1)"/><use xlink:href="#g" transform="matrix(1,0,0,1,910.8813108945969,718.5) translate(13.524999999999999 17.1)"/><use xlink:href="#J" transform="matrix(1,0,0,1,970.8813108945969,718.5) translate(0 17.1)"/><use xlink:href="#K" transform="matrix(1,0,0,1,970.8813108945969,750.5) translate(0 17.1)"/><use xlink:href="#L" transform="matrix(1,0,0,1,970.8813108945969,782.5) translate(0 17.1)"/><use xlink:href="#M" transform="matrix(1,0,0,1,970.8813108945969,814.5) translate(0 17.1)"/><use xlink:href="#N" transform="matrix(1,0,0,1,970.8813108945969,846.5) translate(0 17.1)"/><use xlink:href="#t" transform="matrix(1,0,0,1,970.8813108945969,878.5) translate(0 17.1)"/><path d="M905.88 981c0-2.76 2.24-5 5-5h190c2.76 0 5 2.24 5 5v158c0 2.76-2.24 5-5 5h-190c-2.76 0-5-2.24-5-5z" fill="#fff"/><path d="M905.88 976h200v40h-200z" fill="#ccc"/><path d="M905.88 981c0-2.76 2.24-5 5-5h190c2.76 0 5 2.24 5 5v158c0 2.76-2.24 5-5 5h-190c-2.76 0-5-2.24-5-5zM905.88 1016h200M965.88 1016v128" stroke="#666" stroke-width="2" fill="none"/><use xlink:href="#O" transform="matrix(1,0,0,1,915.8813108945969,976) translate(49.925 23.6)"/><use xlink:href="#b" transform="matrix(1,0,0,1,910.8813108945969,1018.5) translate(13 17.1)"/><use xlink:href="#J" transform="matrix(1,0,0,1,970.8813108945969,1018.5) translate(0 17.1)"/><use xlink:href="#g" transform="matrix(1,0,0,1,910.8813108945969,1050.5) translate(13.524999999999999 17.1)"/><use xlink:href="#P" transform="matrix(1,0,0,1,970.8813108945969,1050.5) translate(0 17.1)"/><use xlink:href="#g" transform="matrix(1,0,0,1,910.8813108945969,1082.5) translate(13.524999999999999 17.1)"/><use xlink:href="#Q" transform="matrix(1,0,0,1,970.8813108945969,1082.5) translate(0 17.1)"/><use xlink:href="#g" transform="matrix(1,0,0,1,910.8813108945969,1114.5) translate(13.524999999999999 17.1)"/><use xlink:href="#R" transform="matrix(1,0,0,1,970.8813108945969,1114.5) translate(0 17.1)"/><path d="M905.88 1401c0-2.76 2.24-5 5-5h190c2.76 0 5 2.24 5 5v126c0 2.76-2.24 5-5 5h-190c-2.76 0-5-2.24-5-5z" fill="#fff"/><path d="M905.88 1396h200v40h-200z" fill="#ccc"/><path d="M905.88 1401c0-2.76 2.24-5 5-5h190c2.76 0 5 2.24 5 5v126c0 2.76-2.24 5-5 5h-190c-2.76 0-5-2.24-5-5zM905.88 1436h200M965.88 1436v96" stroke="#666" stroke-width="2" fill="none"/><use xlink:href="#S" transform="matrix(1,0,0,1,915.8813108945969,1396) translate(36.449999999999996 23.6)"/><use xlink:href="#b" transform="matrix(1,0,0,1,910.8813108945969,1438.5) translate(13 17.1)"/><use xlink:href="#P" transform="matrix(1,0,0,1,970.8813108945969,1438.5) translate(0 17.1)"/><use xlink:href="#d" transform="matrix(1,0,0,1,970.8813108945969,1470.5) translate(0 17.1)"/><use xlink:href="#y" transform="matrix(1,0,0,1,970.8813108945969,1502.5) translate(0 17.1)"/><path d="M905.88 1241c0-2.76 2.24-5 5-5h190c2.76 0 5 2.24 5 5v126c0 2.76-2.24 5-5 5h-190c-2.76 0-5-2.24-5-5z" fill="#fff"/><path d="M905.88 1236h200v40h-200z" fill="#ccc"/><path d="M905.88 1241c0-2.76 2.24-5 5-5h190c2.76 0 5 2.24 5 5v126c0 2.76-2.24 5-5 5h-190c-2.76 0-5-2.24-5-5zM905.88 1276h200M965.88 1276v96" stroke="#666" stroke-width="2" fill="none"/><use xlink:href="#T" transform="matrix(1,0,0,1,915.8813108945969,1236) translate(17.52499999999999 23.6)"/><use xlink:href="#b" transform="matrix(1,0,0,1,910.8813108945969,1278.5) translate(13 17.1)"/><use xlink:href="#Q" transform="matrix(1,0,0,1,970.8813108945969,1278.5) translate(0 17.1)"/><use xlink:href="#d" transform="matrix(1,0,0,1,970.8813108945969,1310.5) translate(0 17.1)"/><use xlink:href="#y" transform="matrix(1,0,0,1,970.8813108945969,1342.5) translate(0 17.1)"/><path d="M904.88 1032h-35c-2.76 0-5-2.24-5-5V737c0-2.76 2.24-5 5-5h35" stroke="#999" stroke-width="2" fill="none"/><path d="M904.88 1022.9l-18.2 9.1 18.2 9.1-.9 1.8-21.78-10.9 21.8-10.9zM904.88 722.9l-18.2 9.1 18.2 9.1-.9 1.8L882.2 732l21.8-10.9z" fill="#999"/><path d="M886.65 1292h-16.77c-2.76 0-5-2.24-5-5v-186c0-2.76 2.24-5 5-5h35" stroke="#999" stroke-width="2" fill="none"/><path d="M901.65 1292l-14.27 4.64v-9.28z" fill="#999"/><path d="M904.88 1292l-18.5 6v-12zm-16.5 3.26l10.03-3.26-10.02-3.26zM904.88 1086.9l-18.2 9.1 18.2 9.1-.9 1.8-21.78-10.9 21.8-10.9z" fill="#999"/><path d="M886.65 1452h-16.77c-2.76 0-5-2.24-5-5v-378c0-2.76 2.24-5 5-5h35" stroke="#999" stroke-width="2" fill="none"/><path d="M901.65 1452l-14.27 4.64v-9.28z" fill="#999"/><path d="M904.88 1452l-18.5 6v-12zm-16.5 3.26l10.03-3.26-10.02-3.26zM904.88 1054.9l-18.2 9.1 18.2 9.1-.9 1.8-21.78-10.9 21.8-10.9z" fill="#999"/><path d="M725.12 952h75.76c2.76 0 5-2.24 5-5V705c0-2.76 2.24-5 5-5h94" stroke="#999" stroke-width="2" fill="none"/><path d="M724.38 956.64L710.12 952l14.26-4.64z" fill="#999"/><path d="M725.38 958l-18.5-6 18.5-6zm-12.03-6l10.03 3.26v-6.52zM904.88 690.9l-18.2 9.1 18.2 9.1-.9 1.8L882.2 700l21.8-10.9z" fill="#999"/><path d="M1245.88 1065c0-2.76 2.24-5 5-5h190c2.76 0 5 2.24 5 5v190c0 2.76-2.24 5-5 5h-190c-2.76 0-5-2.24-5-5z" fill="#fff"/><path d="M1245.88 1060h200v40h-200z" fill="#ccc"/><path d="M1245.88 1065c0-2.76 2.24-5 5-5h190c2.76 0 5 2.24 5 5v190c0 2.76-2.24 5-5 5h-190c-2.76 0-5-2.24-5-5zM1245.88 1100h200M1305.88 1100v160" stroke="#666" stroke-width="2" fill="none"/><use xlink:href="#U" transform="matrix(1,0,0,1,1255.881310894597,1060) translate(54.949999999999996 23.6)"/><use xlink:href="#b" transform="matrix(1,0,0,1,1250.881310894597,1102.5) translate(13 17.1)"/><use xlink:href="#f" transform="matrix(1,0,0,1,1310.881310894597,1102.5) translate(0 17.1)"/><use xlink:href="#g" transform="matrix(1,0,0,1,1250.881310894597,1134.5) translate(13.524999999999999 17.1)"/><use xlink:href="#J" transform="matrix(1,0,0,1,1310.881310894597,1134.5) translate(0 17.1)"/><use xlink:href="#V" transform="matrix(1,0,0,1,1250.881310894597,1166.5) translate(-3.450000000000003 17.1)"/><use xlink:href="#W" transform="matrix(1,0,0,1,1310.881310894597,1166.5) translate(0 17.1)"/><use xlink:href="#X" transform="matrix(1,0,0,1,1310.881310894597,1198.5) translate(0 17.1)"/><use xlink:href="#Y" transform="matrix(1,0,0,1,1310.881310894597,1230.5) translate(0 17.1)"/><path d="M1125.12 1128h45.76c2.76 0 5-2.24 5-5v-2c0-2.76 2.24-5 5-5h64" stroke="#999" stroke-width="2" fill="none"/><path d="M1124.38 1132.64l-14.26-4.64 14.26-4.64z" fill="#999"/><path d="M1125.38 1134l-18.5-6 18.5-6zm-12.03-6l10.03 3.26v-6.52zM1244.88 1106.9l-18.2 9.1 18.2 9.1-.9 1.8-21.78-10.9 21.8-10.9z" fill="#999"/><path d="M1245.88 1325c0-2.76 2.24-5 5-5h190c2.76 0 5 2.24 5 5v126c0 2.76-2.24 5-5 5h-190c-2.76 0-5-2.24-5-5z" fill="#fff"/><path d="M1245.88 1320h200v40h-200z" fill="#ccc"/><path d="M1245.88 1325c0-2.76 2.24-5 5-5h190c2.76 0 5 2.24 5 5v126c0 2.76-2.24 5-5 5h-190c-2.76 0-5-2.24-5-5zM1245.88 1360h200M1305.88 1360v96" stroke="#666" stroke-width="2" fill="none"/><use xlink:href="#Z" transform="matrix(1,0,0,1,1255.881310894597,1320) translate(48.55 23.6)"/><use xlink:href="#b" transform="matrix(1,0,0,1,1250.881310894597,1362.5) translate(13 17.1)"/><use xlink:href="#f" transform="matrix(1,0,0,1,1310.881310894597,1362.5) translate(0 17.1)"/><use xlink:href="#g" transform="matrix(1,0,0,1,1250.881310894597,1394.5) translate(13.524999999999999 17.1)"/><use xlink:href="#aa" transform="matrix(1,0,0,1,1310.881310894597,1394.5) translate(0 17.1)"/><use xlink:href="#ab" transform="matrix(1,0,0,1,1250.881310894597,1426.5) translate(6.549999999999997 17.1)"/><use xlink:href="#W" transform="matrix(1,0,0,1,1310.881310894597,1426.5) translate(0 17.1)"/><path d="M1446.88 1376h35c2.76 0 5-2.24 5-5v-250c0-2.76-2.24-5-5-5h-35" stroke="#999" stroke-width="2" fill="none"/><path d="M1469.56 1376l-21.78 10.9-.9-1.8 18.2-9.1-18.2-9.1.9-1.8zM1469.56 1116l-21.78 10.9-.9-1.8 18.2-9.1-18.2-9.1.9-1.8z" fill="#999"/><path d="M1245.88 617c0-2.76 2.24-5 5-5h190c2.76 0 5 2.24 5 5v318c0 2.76-2.24 5-5 5h-190c-2.76 0-5-2.24-5-5z" fill="#fff"/><path d="M1245.88 612h200v40h-200z" fill="#ccc"/><path d="M1245.88 617c0-2.76 2.24-5 5-5h190c2.76 0 5 2.24 5 5v318c0 2.76-2.24 5-5 5h-190c-2.76 0-5-2.24-5-5zM1245.88 652h200M1305.88 652v288" stroke="#666" stroke-width="2" fill="none"/><use xlink:href="#ac" transform="matrix(1,0,0,1,1255.881310894597,612) translate(50.525 23.6)"/><use xlink:href="#b" transform="matrix(1,0,0,1,1250.881310894597,654.5) translate(13 17.1)"/><use xlink:href="#ad" transform="matrix(1,0,0,1,1310.881310894597,654.5) translate(0 17.1)"/><use xlink:href="#g" transform="matrix(1,0,0,1,1250.881310894597,686.5) translate(13.524999999999999 17.1)"/><use xlink:href="#c" transform="matrix(1,0,0,1,1310.881310894597,686.5) translate(0 17.1)"/><use xlink:href="#g" transform="matrix(1,0,0,1,1250.881310894597,718.5) translate(13.524999999999999 17.1)"/><use xlink:href="#ae" transform="matrix(1,0,0,1,1310.881310894597,718.5) translate(0 17.1)"/><use xlink:href="#g" transform="matrix(1,0,0,1,1250.881310894597,750.5) translate(13.524999999999999 17.1)"/><use xlink:href="#h" transform="matrix(1,0,0,1,1310.881310894597,750.5) translate(0 17.1)"/><use xlink:href="#C" transform="matrix(1,0,0,1,1310.881310894597,782.5) translate(0 17.1)"/><use xlink:href="#af" transform="matrix(1,0,0,1,1310.881310894597,814.5) translate(0 17.1)"/><use xlink:href="#ag" transform="matrix(1,0,0,1,1310.881310894597,846.5) translate(0 17.1)"/><use xlink:href="#m" transform="matrix(1,0,0,1,1310.881310894597,878.5) translate(0 17.1)"/><use xlink:href="#t" transform="matrix(1,0,0,1,1310.881310894597,910.5) translate(0 17.1)"/><path d="M1244.88 732h-64c-2.76 0-5 2.24-5 5v290c0 2.76-2.24 5-5 5h-64" stroke="#999" stroke-width="2" fill="none"/><path d="M1244.88 722.9l-18.2 9.1 18.2 9.1-.9 1.8-21.78-10.9 21.8-10.9z" fill="#999"/><path fill="#fff"/><path d="M1225.43 742h-2v-20h2zM1129.56 1032l-21.78 10.9-.9-1.8 18.2-9.1-18.2-9.1.9-1.8z" fill="#999"/><path d="M1446.88 764h35c2.76 0 5-2.24 5-5V181c0-2.76-2.24-5-5-5H725.12" stroke="#999" stroke-width="2" fill="none"/><path d="M1469.56 764l-21.78 10.9-.9-1.8 18.2-9.1-18.2-9.1.9-1.8zM724.38 180.64L710.12 176l14.26-4.64z" fill="#999"/><path d="M725.38 182l-18.5-6 18.5-6zm-12.03-6l10.03 3.26v-6.52z" fill="#999"/><defs><path fill="#333" d="M124-13C89 8 26 15 26-45v-108c-8-3-24 2-21-12h50v118c-3 37 42 32 69 25v-131l-25-4v-8h54v153c8 3 24-2 21 12h-48" id="ah"/><path fill="#333" d="M-3 46V28h186v18H-3" id="ai"/><path fill="#333" d="M134-16c44-1 70-21 70-64v-142l-32-4v-10h80v10l-30 4v141c0 57-33 84-91 85-58 0-93-26-93-82v-144l-30-4v-10h94v10l-30 4c7 82-31 209 62 206" id="aj"/><path fill="#333" d="M41-130c7 48 86 23 86 84 0 56-69 57-112 41v-40c20 0 9 29 31 31 35 19 77-26 41-50-27-18-72-13-72-59 0-50 58-52 100-41v36c-19 1-8-25-28-25-21-7-50-1-46 23" id="ak"/><path fill="#333" d="M84-170c49 0 66 33 63 87H46c-8 60 38 80 95 63v10C128-2 108 4 88 4 34 4 14-29 14-84c-1-54 22-86 70-86zm33 73c12-57-57-82-69-24-1 7-2 15-2 24h71" id="al"/><path fill="#333" d="M57-145c16-10 35-24 60-25v45c-19 1-8-30-40-17l-20 6v124l29 4v8H7v-8l21-4v-141c-8-3-24 2-21-12h48" id="am"/><g id="a"><use transform="matrix(0.05,0,0,0.05,0,0)" xlink:href="#ah"/><use transform="matrix(0.05,0,0,0.05,9,0)" xlink:href="#ai"/><use transform="matrix(0.05,0,0,0.05,18,0)" xlink:href="#aj"/><use transform="matrix(0.05,0,0,0.05,30.950000000000003,0)" xlink:href="#ak"/><use transform="matrix(0.05,0,0,0.05,37.95,0)" xlink:href="#al"/><use transform="matrix(0.05,0,0,0.05,45.900000000000006,0)" xlink:href="#am"/><use transform="matrix(0.05,0,0,0.05,51.85,0)" xlink:href="#ak"/></g><path d="M30-248c87 1 191-15 191 75 0 78-77 80-158 76V0H30v-248zm33 125c57 0 124 11 124-50 0-59-68-47-124-48v98" id="an"/><path d="M194 0L95-120 63-95V0H30v-248h33v124l119-124h40L117-140 236 0h-42" id="ao"/><g id="b"><use transform="matrix(0.05,0,0,0.05,0,0)" xlink:href="#an"/><use transform="matrix(0.05,0,0,0.05,12,0)" xlink:href="#ao"/></g><path d="M84 4C-5 8 30-112 23-190h32v120c0 31 7 50 39 49 72-2 45-101 50-169h31l1 190h-30c-1-10 1-25-2-33-11 22-28 36-60 37" id="ap"/><path d="M24-231v-30h32v30H24zM24 0v-190h32V0H24" id="aq"/><path d="M85-194c31 0 48 13 60 33l-1-100h32l1 261h-30c-2-10 0-23-3-31C134-8 116 4 85 4 32 4 16-35 15-94c0-66 23-100 70-100zm9 24c-40 0-46 34-46 75 0 40 6 74 45 74 42 0 51-32 51-76 0-42-9-74-50-73" id="ar"/><g id="c"><use transform="matrix(0.05,0,0,0.05,0,0)" xlink:href="#ap"/><use transform="matrix(0.05,0,0,0.05,10,0)" xlink:href="#aq"/><use transform="matrix(0.05,0,0,0.05,13.949999999999998,0)" xlink:href="#ar"/></g><path d="M117-194c89-4 53 116 60 194h-32v-121c0-31-8-49-39-48C34-167 62-67 57 0H25l-1-190h30c1 10-1 24 2 32 11-22 29-35 61-36" id="as"/><path d="M141-36C126-15 110 5 73 4 37 3 15-17 15-53c-1-64 63-63 125-63 3-35-9-54-41-54-24 1-41 7-42 31l-33-3c5-37 33-52 76-52 45 0 72 20 72 64v82c-1 20 7 32 28 27v20c-31 9-61-2-59-35zM48-53c0 20 12 33 32 33 41-3 63-29 60-74-43 2-92-5-92 41" id="at"/><path d="M210-169c-67 3-38 105-44 169h-31v-121c0-29-5-50-35-48C34-165 62-65 56 0H25l-1-190h30c1 10-1 24 2 32 10-44 99-50 107 0 11-21 27-35 58-36 85-2 47 119 55 194h-31v-121c0-29-5-49-35-48" id="au"/><path d="M100-194c63 0 86 42 84 106H49c0 40 14 67 53 68 26 1 43-12 49-29l28 8c-11 28-37 45-77 45C44 4 14-33 15-96c1-61 26-98 85-98zm52 81c6-60-76-77-97-28-3 7-6 17-6 28h103" id="av"/><g id="d"><use transform="matrix(0.05,0,0,0.05,0,0)" xlink:href="#as"/><use transform="matrix(0.05,0,0,0.05,10,0)" xlink:href="#at"/><use transform="matrix(0.05,0,0,0.05,20,0)" xlink:href="#au"/><use transform="matrix(0.05,0,0,0.05,34.95,0)" xlink:href="#av"/></g><path fill="#333" d="M10 0v-9l31-5v-208l-31-4v-10h95v10l-30 4v93h110v-93l-30-4v-10h94v10l-30 4v208l30 5v9h-94v-9l30-5v-99H75v99l30 5v9H10" id="aw"/><path fill="#333" d="M90-170c52 0 76 32 76 87 0 54-24 87-77 87-51 0-75-34-75-87 0-54 24-87 76-87zM89-10c39 0 46-35 46-73 0-39-7-73-46-73-39 1-44 34-44 73s6 72 44 73" id="ax"/><path fill="#333" d="M54-38c-1 25 24 26 44 20v12C71 10 25 9 25-35v-115H4c-2-14 14-10 21-15l18-38h11v38h38v15H54v112" id="ay"/><g id="e"><use transform="matrix(0.05,0,0,0.05,0,0)" xlink:href="#ah"/><use transform="matrix(0.05,0,0,0.05,9,0)" xlink:href="#ai"/><use transform="matrix(0.05,0,0,0.05,18,0)" xlink:href="#aw"/><use transform="matrix(0.05,0,0,0.05,30.950000000000003,0)" xlink:href="#ax"/><use transform="matrix(0.05,0,0,0.05,39.95,0)" xlink:href="#ak"/><use transform="matrix(0.05,0,0,0.05,46.95,0)" xlink:href="#ay"/><use transform="matrix(0.05,0,0,0.05,51.95,0)" xlink:href="#ak"/></g><g id="f"><use transform="matrix(0.05,0,0,0.05,0,0)" xlink:href="#aq"/><use transform="matrix(0.05,0,0,0.05,3.95,0)" xlink:href="#ar"/></g><path d="M63-220v92h138v28H63V0H30v-248h175v28H63" id="az"/><g id="g"><use transform="matrix(0.05,0,0,0.05,0,0)" xlink:href="#az"/><use transform="matrix(0.05,0,0,0.05,10.950000000000001,0)" xlink:href="#ao"/></g><path d="M106-169C34-169 62-67 57 0H25v-261h32l-1 103c12-21 28-36 61-36 89 0 53 116 60 194h-32v-121c2-32-8-49-39-48" id="aA"/><path d="M100-194c62-1 85 37 85 99 1 63-27 99-86 99S16-35 15-95c0-66 28-99 85-99zM99-20c44 1 53-31 53-75 0-43-8-75-51-75s-53 32-53 75 10 74 51 75" id="aB"/><path d="M135-143c-3-34-86-38-87 0 15 53 115 12 119 90S17 21 10-45l28-5c4 36 97 45 98 0-10-56-113-15-118-90-4-57 82-63 122-42 12 7 21 19 24 35" id="aC"/><path d="M59-47c-2 24 18 29 38 22v24C64 9 27 4 27-40v-127H5v-23h24l9-43h21v43h35v23H59v120" id="aD"/><path d="M-5 72V49h209v23H-5" id="aE"/><g id="h"><use transform="matrix(0.05,0,0,0.05,0,0)" xlink:href="#aA"/><use transform="matrix(0.05,0,0,0.05,10,0)" xlink:href="#aB"/><use transform="matrix(0.05,0,0,0.05,20,0)" xlink:href="#aC"/><use transform="matrix(0.05,0,0,0.05,29,0)" xlink:href="#aD"/><use transform="matrix(0.05,0,0,0.05,34,0)" xlink:href="#aE"/><use transform="matrix(0.05,0,0,0.05,44,0)" xlink:href="#aq"/><use transform="matrix(0.05,0,0,0.05,47.95,0)" xlink:href="#ar"/></g><path d="M114-163C36-179 61-72 57 0H25l-1-190h30c1 12-1 29 2 39 6-27 23-49 58-41v29" id="aF"/><g id="i"><use transform="matrix(0.05,0,0,0.05,0,0)" xlink:href="#aA"/><use transform="matrix(0.05,0,0,0.05,10,0)" xlink:href="#aB"/><use transform="matrix(0.05,0,0,0.05,20,0)" xlink:href="#aC"/><use transform="matrix(0.05,0,0,0.05,29,0)" xlink:href="#aD"/><use transform="matrix(0.05,0,0,0.05,34,0)" xlink:href="#aE"/><use transform="matrix(0.05,0,0,0.05,44,0)" xlink:href="#ap"/><use transform="matrix(0.05,0,0,0.05,54,0)" xlink:href="#aC"/><use transform="matrix(0.05,0,0,0.05,63,0)" xlink:href="#av"/><use transform="matrix(0.05,0,0,0.05,73,0)" xlink:href="#aF"/><use transform="matrix(0.05,0,0,0.05,78.95,0)" xlink:href="#aE"/><use transform="matrix(0.05,0,0,0.05,88.95,0)" xlink:href="#aq"/><use transform="matrix(0.05,0,0,0.05,92.9,0)" xlink:href="#ar"/></g><g id="j"><use transform="matrix(0.05,0,0,0.05,0,0)" xlink:href="#at"/><use transform="matrix(0.05,0,0,0.05,10,0)" xlink:href="#ap"/><use transform="matrix(0.05,0,0,0.05,20,0)" xlink:href="#aD"/><use transform="matrix(0.05,0,0,0.05,25,0)" xlink:href="#aA"/></g><path d="M96-169c-40 0-48 33-48 73s9 75 48 75c24 0 41-14 43-38l32 2c-6 37-31 61-74 61-59 0-76-41-82-99-10-93 101-131 147-64 4 7 5 14 7 22l-32 3c-4-21-16-35-41-35" id="aG"/><path d="M143 0L79-87 56-68V0H24v-261h32v163l83-92h37l-77 82L181 0h-38" id="aH"/><g id="k"><use transform="matrix(0.05,0,0,0.05,0,0)" xlink:href="#as"/><use transform="matrix(0.05,0,0,0.05,10,0)" xlink:href="#aq"/><use transform="matrix(0.05,0,0,0.05,13.949999999999998,0)" xlink:href="#aG"/><use transform="matrix(0.05,0,0,0.05,22.95,0)" xlink:href="#aH"/><use transform="matrix(0.05,0,0,0.05,31.950000000000003,0)" xlink:href="#as"/><use transform="matrix(0.05,0,0,0.05,41.95,0)" xlink:href="#at"/><use transform="matrix(0.05,0,0,0.05,51.95,0)" xlink:href="#au"/><use transform="matrix(0.05,0,0,0.05,66.9,0)" xlink:href="#av"/></g><path d="M24 0v-261h32V0H24" id="aI"/><g id="l"><use transform="matrix(0.05,0,0,0.05,0,0)" xlink:href="#av"/><use transform="matrix(0.05,0,0,0.05,10,0)" xlink:href="#au"/><use transform="matrix(0.05,0,0,0.05,24.950000000000003,0)" xlink:href="#at"/><use transform="matrix(0.05,0,0,0.05,34.95,0)" xlink:href="#aq"/><use transform="matrix(0.05,0,0,0.05,38.900000000000006,0)" xlink:href="#aI"/></g><path d="M101-234c-31-9-42 10-38 44h38v23H63V0H32v-167H5v-23h27c-7-52 17-82 69-68v24" id="aJ"/><g id="m"><use transform="matrix(0.05,0,0,0.05,0,0)" xlink:href="#aq"/><use transform="matrix(0.05,0,0,0.05,3.95,0)" xlink:href="#as"/><use transform="matrix(0.05,0,0,0.05,13.949999999999998,0)" xlink:href="#aJ"/><use transform="matrix(0.05,0,0,0.05,18.95,0)" xlink:href="#aB"/></g><path fill="#333" d="M126-119c3-38-42-31-69-25v132l23 4v8H7v-8l21-4v-226l-24-4v-8h53l-1 98c31-22 99-31 99 31v109c7 3 23-1 20 12h-71v-8l22-4v-107" id="aK"/><g id="n"><use transform="matrix(0.05,0,0,0.05,0,0)" xlink:href="#aK"/><use transform="matrix(0.05,0,0,0.05,9,0)" xlink:href="#ax"/><use transform="matrix(0.05,0,0,0.05,18,0)" xlink:href="#ak"/><use transform="matrix(0.05,0,0,0.05,25,0)" xlink:href="#ay"/><use transform="matrix(0.05,0,0,0.05,30,0)" xlink:href="#ak"/></g><path d="M232-93c-1 65-40 97-104 97C67 4 28-28 28-90v-158h33c8 89-33 224 67 224 102 0 64-133 71-224h33v155" id="aL"/><path d="M233-177c-1 41-23 64-60 70L243 0h-38l-65-103H63V0H30v-248c88 3 205-21 203 71zM63-129c60-2 137 13 137-47 0-61-80-42-137-45v92" id="aM"/><path d="M33 0v-248h34V0H33" id="aN"/><g id="o"><use transform="matrix(0.05,0,0,0.05,0,0)" xlink:href="#aL"/><use transform="matrix(0.05,0,0,0.05,12.950000000000001,0)" xlink:href="#aM"/><use transform="matrix(0.05,0,0,0.05,25.900000000000002,0)" xlink:href="#aN"/></g><g id="p"><use transform="matrix(0.05,0,0,0.05,0,0)" xlink:href="#at"/><use transform="matrix(0.05,0,0,0.05,10,0)" xlink:href="#ap"/><use transform="matrix(0.05,0,0,0.05,20,0)" xlink:href="#aD"/><use transform="matrix(0.05,0,0,0.05,25,0)" xlink:href="#aA"/><use transform="matrix(0.05,0,0,0.05,35,0)" xlink:href="#aE"/><use transform="matrix(0.05,0,0,0.05,45,0)" xlink:href="#au"/><use transform="matrix(0.05,0,0,0.05,59.95,0)" xlink:href="#av"/><use transform="matrix(0.05,0,0,0.05,69.95,0)" xlink:href="#aD"/><use transform="matrix(0.05,0,0,0.05,74.95,0)" xlink:href="#aA"/><use transform="matrix(0.05,0,0,0.05,84.95,0)" xlink:href="#aB"/><use transform="matrix(0.05,0,0,0.05,94.95,0)" xlink:href="#ar"/><use transform="matrix(0.05,0,0,0.05,104.95,0)" xlink:href="#aC"/></g><path fill="#333" d="M81-9v9H4v-9l26-5 81-224h33l83 224 30 5v9h-99v-9l31-5-23-68H73L49-14zm38-203L78-98h82" id="aO"/><path fill="#333" d="M47-200c-23 0-25-39 0-38 13 0 18 7 20 19-1 11-8 19-20 19zM65-12l28 4v8H8v-8l28-4v-141l-24-4v-8h53v153" id="aP"/><g id="q"><use transform="matrix(0.05,0,0,0.05,0,0)" xlink:href="#ah"/><use transform="matrix(0.05,0,0,0.05,9,0)" xlink:href="#ai"/><use transform="matrix(0.05,0,0,0.05,18,0)" xlink:href="#aO"/><use transform="matrix(0.05,0,0,0.05,30.950000000000003,0)" xlink:href="#am"/><use transform="matrix(0.05,0,0,0.05,36.900000000000006,0)" xlink:href="#ay"/><use transform="matrix(0.05,0,0,0.05,41.900000000000006,0)" xlink:href="#aP"/><use transform="matrix(0.05,0,0,0.05,46.900000000000006,0)" xlink:href="#ak"/><use transform="matrix(0.05,0,0,0.05,53.900000000000006,0)" xlink:href="#ay"/><use transform="matrix(0.05,0,0,0.05,58.900000000000006,0)" xlink:href="#ak"/></g><g id="r"><use transform="matrix(0.05,0,0,0.05,0,0)" xlink:href="#at"/><use transform="matrix(0.05,0,0,0.05,10,0)" xlink:href="#aD"/><use transform="matrix(0.05,0,0,0.05,15,0)" xlink:href="#aq"/><use transform="matrix(0.05,0,0,0.05,18.95,0)" xlink:href="#ar"/></g><g id="s"><use transform="matrix(0.05,0,0,0.05,0,0)" xlink:href="#aI"/><use transform="matrix(0.05,0,0,0.05,3.95,0)" xlink:href="#aq"/><use transform="matrix(0.05,0,0,0.05,7.9,0)" xlink:href="#aH"/><use transform="matrix(0.05,0,0,0.05,16.9,0)" xlink:href="#av"/><use transform="matrix(0.05,0,0,0.05,26.899999999999995,0)" xlink:href="#ar"/><use transform="matrix(0.05,0,0,0.05,36.9,0)" xlink:href="#aE"/><use transform="matrix(0.05,0,0,0.05,46.9,0)" xlink:href="#at"/><use transform="matrix(0.05,0,0,0.05,56.900000000000006,0)" xlink:href="#aD"/></g><g id="t"><use transform="matrix(0.05,0,0,0.05,0,0)" xlink:href="#au"/><use transform="matrix(0.05,0,0,0.05,14.950000000000001,0)" xlink:href="#av"/><use transform="matrix(0.05,0,0,0.05,24.950000000000003,0)" xlink:href="#au"/><use transform="matrix(0.05,0,0,0.05,39.900000000000006,0)" xlink:href="#aB"/></g><path fill="#333" d="M126-118c4-37-42-32-68-25v131l24 4v8H8C5-13 21-9 28-12v-141c-7-3-23 1-20-12h48l1 13c22-15 77-30 92 2 32-22 104-36 104 29v109c8 3 24-2 21 12h-75v-8l25-4v-106c3-39-45-31-72-24 7 37 1 88 3 130l25 4v8h-78v-8l24-4v-106" id="aQ"/><path fill="#333" d="M166-85c3 67-44 102-111 85l1 64 29 4v9H6v-9l21-4v-217c-7-3-22 1-19-12h46l1 9c11-8 26-14 45-14 47 2 64 36 66 85zM56-13c53 14 83-14 78-72 7-53-33-79-78-60v132" id="aR"/><g id="u"><use transform="matrix(0.05,0,0,0.05,0,0)" xlink:href="#aQ"/><use transform="matrix(0.05,0,0,0.05,14,0)" xlink:href="#aR"/><use transform="matrix(0.05,0,0,0.05,23,0)" xlink:href="#ai"/><use transform="matrix(0.05,0,0,0.05,32,0)" xlink:href="#aO"/><use transform="matrix(0.05,0,0,0.05,44.95,0)" xlink:href="#am"/><use transform="matrix(0.05,0,0,0.05,50.900000000000006,0)" xlink:href="#ay"/><use transform="matrix(0.05,0,0,0.05,55.900000000000006,0)" xlink:href="#aP"/><use transform="matrix(0.05,0,0,0.05,60.900000000000006,0)" xlink:href="#ak"/><use transform="matrix(0.05,0,0,0.05,67.9,0)" xlink:href="#ay"/><use transform="matrix(0.05,0,0,0.05,72.9,0)" xlink:href="#ak"/></g><path d="M115-194c55 1 70 41 70 98S169 2 115 4C84 4 66-9 55-30l1 105H24l-1-265h31l2 30c10-21 28-34 59-34zm-8 174c40 0 45-34 45-75s-6-73-45-74c-42 0-51 32-51 76 0 43 10 73 51 73" id="aS"/><g id="v"><use transform="matrix(0.05,0,0,0.05,0,0)" xlink:href="#at"/><use transform="matrix(0.05,0,0,0.05,10,0)" xlink:href="#aD"/><use transform="matrix(0.05,0,0,0.05,15,0)" xlink:href="#aq"/><use transform="matrix(0.05,0,0,0.05,18.95,0)" xlink:href="#ar"/><use transform="matrix(0.05,0,0,0.05,28.950000000000003,0)" xlink:href="#aE"/><use transform="matrix(0.05,0,0,0.05,38.95,0)" xlink:href="#aC"/><use transform="matrix(0.05,0,0,0.05,47.95,0)" xlink:href="#aS"/><use transform="matrix(0.05,0,0,0.05,57.95,0)" xlink:href="#aD"/></g><path d="M115-194c53 0 69 39 70 98 0 66-23 100-70 100C84 3 66-7 56-30L54 0H23l1-261h32v101c10-23 28-34 59-34zm-8 174c40 0 45-34 45-75 0-40-5-75-45-74-42 0-51 32-51 76 0 43 10 73 51 73" id="aT"/><path d="M9 0v-24l116-142H16v-24h144v24L44-24h123V0H9" id="aU"/><g id="w"><use transform="matrix(0.05,0,0,0.05,0,0)" xlink:href="#at"/><use transform="matrix(0.05,0,0,0.05,10,0)" xlink:href="#aD"/><use transform="matrix(0.05,0,0,0.05,15,0)" xlink:href="#aq"/><use transform="matrix(0.05,0,0,0.05,18.95,0)" xlink:href="#ar"/><use transform="matrix(0.05,0,0,0.05,28.950000000000003,0)" xlink:href="#aE"/><use transform="matrix(0.05,0,0,0.05,38.95,0)" xlink:href="#au"/><use transform="matrix(0.05,0,0,0.05,53.900000000000006,0)" xlink:href="#aT"/><use transform="matrix(0.05,0,0,0.05,63.900000000000006,0)" xlink:href="#aU"/></g><path fill="#333" d="M103-236c-39-15-35 32-34 71h44v15H69v136l35 6v8H15v-8l25-6v-136H11v-9l29-7c-6-59 23-100 80-84v36c-15 2-12-14-17-22" id="aV"/><path fill="#333" d="M161-154L85 37C75 66 49 86 8 75V39c18-2 6 24 29 21 30-4 38-32 47-58L21-153c-7-3-20 0-17-12h77v8l-26 4 45 116 43-116-26-4v-8h62v8" id="aW"/><g id="x"><use transform="matrix(0.05,0,0,0.05,0,0)" xlink:href="#ak"/><use transform="matrix(0.05,0,0,0.05,7,0)" xlink:href="#aR"/><use transform="matrix(0.05,0,0,0.05,16,0)" xlink:href="#ax"/><use transform="matrix(0.05,0,0,0.05,25,0)" xlink:href="#ay"/><use transform="matrix(0.05,0,0,0.05,30,0)" xlink:href="#aP"/><use transform="matrix(0.05,0,0,0.05,35,0)" xlink:href="#aV"/><use transform="matrix(0.05,0,0,0.05,40.95,0)" xlink:href="#aW"/><use transform="matrix(0.05,0,0,0.05,49.95,0)" xlink:href="#ai"/><use transform="matrix(0.05,0,0,0.05,58.95,0)" xlink:href="#aO"/><use transform="matrix(0.05,0,0,0.05,71.9,0)" xlink:href="#am"/><use transform="matrix(0.05,0,0,0.05,77.85000000000001,0)" xlink:href="#ay"/><use transform="matrix(0.05,0,0,0.05,82.85000000000001,0)" xlink:href="#aP"/><use transform="matrix(0.05,0,0,0.05,87.85000000000001,0)" xlink:href="#ak"/><use transform="matrix(0.05,0,0,0.05,94.85000000000001,0)" xlink:href="#ay"/><use transform="matrix(0.05,0,0,0.05,99.85000000000001,0)" xlink:href="#ak"/></g><path d="M33 0v-38h34V0H33" id="aX"/><g id="y"><use transform="matrix(0.05,0,0,0.05,0,0)" xlink:href="#aX"/><use transform="matrix(0.05,0,0,0.05,5,0)" xlink:href="#aX"/><use transform="matrix(0.05,0,0,0.05,10,0)" xlink:href="#aX"/><use transform="matrix(0.05,0,0,0.05,15,0)" xlink:href="#aX"/><use transform="matrix(0.05,0,0,0.05,20,0)" xlink:href="#aX"/><use transform="matrix(0.05,0,0,0.05,25,0)" xlink:href="#aX"/></g><path fill="#333" d="M45-84c0 64 52 80 104 63 1 25-30 25-55 25-56 0-80-32-80-88 0-76 62-98 131-80v46h-10c-5-15-4-31-23-35-47-10-67 21-67 69" id="aY"/><path fill="#333" d="M53-14c58 12 82-15 82-73 0-52-35-77-82-58v131zM89 4C64 4 42-2 24-9v-229l-24-4v-8h53l-1 94c48-33 114-4 114 69 0 57-23 91-77 91" id="aZ"/><path fill="#333" d="M32-163c41-10 102-14 102 39v112c8 3 24-2 21 12h-45l-4-17C83 13 3 13 13-46c-2-50 45-50 92-51 4-36-5-70-42-56-6 2-12 4-16 6-4 7 0 23-15 20v-36zM42-47c0 41 41 33 63 22v-59c-34 1-63-1-63 37" id="ba"/><path fill="#333" d="M125-118c4-37-41-34-68-26v132l23 4v8H8C5-13 21-9 28-12v-141c-7-3-23 1-20-12h47l2 13c31-23 98-29 98 31v109c7 3 23-1 20 12h-72v-8l22-4v-106" id="bb"/><path fill="#333" d="M10 0v-8l90-143c-23 2-54-4-70 6-5 8 1 26-14 24v-44h122v8L47-14c29-2 65 3 86-8l9-35h8l-5 57H10" id="bc"/><g id="z"><use transform="matrix(0.05,0,0,0.05,0,0)" xlink:href="#aQ"/><use transform="matrix(0.05,0,0,0.05,14,0)" xlink:href="#ah"/><use transform="matrix(0.05,0,0,0.05,23,0)" xlink:href="#ak"/><use transform="matrix(0.05,0,0,0.05,30,0)" xlink:href="#aP"/><use transform="matrix(0.05,0,0,0.05,35,0)" xlink:href="#aY"/><use transform="matrix(0.05,0,0,0.05,42.95,0)" xlink:href="#aZ"/><use transform="matrix(0.05,0,0,0.05,51.95,0)" xlink:href="#am"/><use transform="matrix(0.05,0,0,0.05,57.900000000000006,0)" xlink:href="#ba"/><use transform="matrix(0.05,0,0,0.05,65.85000000000001,0)" xlink:href="#aP"/><use transform="matrix(0.05,0,0,0.05,70.85000000000001,0)" xlink:href="#bb"/><use transform="matrix(0.05,0,0,0.05,79.85000000000001,0)" xlink:href="#bc"/><use transform="matrix(0.05,0,0,0.05,87.80000000000001,0)" xlink:href="#ai"/><use transform="matrix(0.05,0,0,0.05,96.80000000000001,0)" xlink:href="#aO"/><use transform="matrix(0.05,0,0,0.05,109.75,0)" xlink:href="#am"/><use transform="matrix(0.05,0,0,0.05,115.7,0)" xlink:href="#ay"/><use transform="matrix(0.05,0,0,0.05,120.7,0)" xlink:href="#aP"/><use transform="matrix(0.05,0,0,0.05,125.7,0)" xlink:href="#ak"/><use transform="matrix(0.05,0,0,0.05,132.70000000000002,0)" xlink:href="#ay"/><use transform="matrix(0.05,0,0,0.05,137.70000000000002,0)" xlink:href="#ak"/></g><path fill="#333" d="M65-12l28 4v8H7v-8l28-4v-226l-28-4v-8h58v238" id="bd"/><g id="A"><use transform="matrix(0.05,0,0,0.05,0,0)" xlink:href="#ah"/><use transform="matrix(0.05,0,0,0.05,9,0)" xlink:href="#ai"/><use transform="matrix(0.05,0,0,0.05,18,0)" xlink:href="#aO"/><use transform="matrix(0.05,0,0,0.05,30.950000000000003,0)" xlink:href="#bd"/><use transform="matrix(0.05,0,0,0.05,35.95,0)" xlink:href="#aZ"/><use transform="matrix(0.05,0,0,0.05,44.95,0)" xlink:href="#ah"/><use transform="matrix(0.05,0,0,0.05,53.95,0)" xlink:href="#aQ"/><use transform="matrix(0.05,0,0,0.05,67.95,0)" xlink:href="#ak"/></g><g id="B"><use transform="matrix(0.05,0,0,0.05,0,0)" xlink:href="#at"/><use transform="matrix(0.05,0,0,0.05,10,0)" xlink:href="#aT"/><use transform="matrix(0.05,0,0,0.05,20,0)" xlink:href="#aq"/><use transform="matrix(0.05,0,0,0.05,23.95,0)" xlink:href="#ar"/></g><g id="C"><use transform="matrix(0.05,0,0,0.05,0,0)" xlink:href="#aD"/><use transform="matrix(0.05,0,0,0.05,5,0)" xlink:href="#aq"/><use transform="matrix(0.05,0,0,0.05,8.95,0)" xlink:href="#aD"/><use transform="matrix(0.05,0,0,0.05,13.949999999999998,0)" xlink:href="#aI"/><use transform="matrix(0.05,0,0,0.05,17.9,0)" xlink:href="#av"/></g><g id="D"><use transform="matrix(0.05,0,0,0.05,0,0)" xlink:href="#aQ"/><use transform="matrix(0.05,0,0,0.05,14,0)" xlink:href="#aR"/><use transform="matrix(0.05,0,0,0.05,23,0)" xlink:href="#ai"/><use transform="matrix(0.05,0,0,0.05,32,0)" xlink:href="#aO"/><use transform="matrix(0.05,0,0,0.05,44.95,0)" xlink:href="#bd"/><use transform="matrix(0.05,0,0,0.05,49.95,0)" xlink:href="#aZ"/><use transform="matrix(0.05,0,0,0.05,58.95,0)" xlink:href="#ah"/><use transform="matrix(0.05,0,0,0.05,67.95,0)" xlink:href="#aQ"/><use transform="matrix(0.05,0,0,0.05,81.95,0)" xlink:href="#ak"/></g><g id="E"><use transform="matrix(0.05,0,0,0.05,0,0)" xlink:href="#at"/><use transform="matrix(0.05,0,0,0.05,10,0)" xlink:href="#aT"/><use transform="matrix(0.05,0,0,0.05,20,0)" xlink:href="#aq"/><use transform="matrix(0.05,0,0,0.05,23.95,0)" xlink:href="#ar"/><use transform="matrix(0.05,0,0,0.05,33.95,0)" xlink:href="#aE"/><use transform="matrix(0.05,0,0,0.05,43.95,0)" xlink:href="#aC"/><use transform="matrix(0.05,0,0,0.05,52.95,0)" xlink:href="#aS"/><use transform="matrix(0.05,0,0,0.05,62.95,0)" xlink:href="#aD"/></g><g id="F"><use transform="matrix(0.05,0,0,0.05,0,0)" xlink:href="#at"/><use transform="matrix(0.05,0,0,0.05,10,0)" xlink:href="#aT"/><use transform="matrix(0.05,0,0,0.05,20,0)" xlink:href="#aq"/><use transform="matrix(0.05,0,0,0.05,23.95,0)" xlink:href="#ar"/><use transform="matrix(0.05,0,0,0.05,33.95,0)" xlink:href="#aE"/><use transform="matrix(0.05,0,0,0.05,43.95,0)" xlink:href="#au"/><use transform="matrix(0.05,0,0,0.05,58.900000000000006,0)" xlink:href="#aT"/><use transform="matrix(0.05,0,0,0.05,68.9,0)" xlink:href="#aU"/></g><g id="G"><use transform="matrix(0.05,0,0,0.05,0,0)" xlink:href="#ak"/><use transform="matrix(0.05,0,0,0.05,7,0)" xlink:href="#aR"/><use transform="matrix(0.05,0,0,0.05,16,0)" xlink:href="#ax"/><use transform="matrix(0.05,0,0,0.05,25,0)" xlink:href="#ay"/><use transform="matrix(0.05,0,0,0.05,30,0)" xlink:href="#aP"/><use transform="matrix(0.05,0,0,0.05,35,0)" xlink:href="#aV"/><use transform="matrix(0.05,0,0,0.05,40.95,0)" xlink:href="#aW"/><use transform="matrix(0.05,0,0,0.05,49.95,0)" xlink:href="#ai"/><use transform="matrix(0.05,0,0,0.05,58.95,0)" xlink:href="#aO"/><use transform="matrix(0.05,0,0,0.05,71.9,0)" xlink:href="#bd"/><use transform="matrix(0.05,0,0,0.05,76.9,0)" xlink:href="#aZ"/><use transform="matrix(0.05,0,0,0.05,85.9,0)" xlink:href="#ah"/><use transform="matrix(0.05,0,0,0.05,94.9,0)" xlink:href="#aQ"/><use transform="matrix(0.05,0,0,0.05,108.9,0)" xlink:href="#ak"/></g><g id="H"><use transform="matrix(0.05,0,0,0.05,0,0)" xlink:href="#aQ"/><use transform="matrix(0.05,0,0,0.05,14,0)" xlink:href="#ah"/><use transform="matrix(0.05,0,0,0.05,23,0)" xlink:href="#ak"/><use transform="matrix(0.05,0,0,0.05,30,0)" xlink:href="#aP"/><use transform="matrix(0.05,0,0,0.05,35,0)" xlink:href="#aY"/><use transform="matrix(0.05,0,0,0.05,42.95,0)" xlink:href="#aZ"/><use transform="matrix(0.05,0,0,0.05,51.95,0)" xlink:href="#am"/><use transform="matrix(0.05,0,0,0.05,57.900000000000006,0)" xlink:href="#ba"/><use transform="matrix(0.05,0,0,0.05,65.85000000000001,0)" xlink:href="#aP"/><use transform="matrix(0.05,0,0,0.05,70.85000000000001,0)" xlink:href="#bb"/><use transform="matrix(0.05,0,0,0.05,79.85000000000001,0)" xlink:href="#bc"/><use transform="matrix(0.05,0,0,0.05,87.80000000000001,0)" xlink:href="#ai"/><use transform="matrix(0.05,0,0,0.05,96.80000000000001,0)" xlink:href="#aO"/><use transform="matrix(0.05,0,0,0.05,109.75,0)" xlink:href="#bd"/><use transform="matrix(0.05,0,0,0.05,114.75,0)" xlink:href="#aZ"/><use transform="matrix(0.05,0,0,0.05,123.75,0)" xlink:href="#ah"/><use transform="matrix(0.05,0,0,0.05,132.75,0)" xlink:href="#aQ"/><use transform="matrix(0.05,0,0,0.05,146.75,0)" xlink:href="#ak"/></g><path fill="#333" d="M55 0v-9l38-5v-207c-22 1-53 0-70 4l-5 37H7v-56h207v56h-12l-5-37-70-3v206l37 5v9H55" id="be"/><path fill="#333" d="M60-80l68-73c-7-3-20 0-17-12h58c3 13-13 9-20 12l-47 48 60 93c7 3 21-1 18 12h-68c-3-12 9-9 15-12L82-83 60-60v48c7 3 21-1 18 12H10v-8l21-4v-226l-24-4v-8h53v170" id="bf"/><g id="I"><use transform="matrix(0.05,0,0,0.05,0,0)" xlink:href="#ah"/><use transform="matrix(0.05,0,0,0.05,9,0)" xlink:href="#ai"/><use transform="matrix(0.05,0,0,0.05,18,0)" xlink:href="#be"/><use transform="matrix(0.05,0,0,0.05,28.3,0)" xlink:href="#am"/><use transform="matrix(0.05,0,0,0.05,34.25000000000001,0)" xlink:href="#ba"/><use transform="matrix(0.05,0,0,0.05,42.20000000000001,0)" xlink:href="#aY"/><use transform="matrix(0.05,0,0,0.05,50.15000000000001,0)" xlink:href="#bf"/><use transform="matrix(0.05,0,0,0.05,59.15000000000001,0)" xlink:href="#ak"/></g><g id="J"><use transform="matrix(0.05,0,0,0.05,0,0)" xlink:href="#aD"/><use transform="matrix(0.05,0,0,0.05,5,0)" xlink:href="#aq"/><use transform="matrix(0.05,0,0,0.05,8.95,0)" xlink:href="#ar"/></g><path d="M179-190L93 31C79 59 56 82 12 73V49c39 6 53-20 64-50L1-190h34L92-34l54-156h33" id="bg"/><g id="K"><use transform="matrix(0.05,0,0,0.05,0,0)" xlink:href="#aI"/><use transform="matrix(0.05,0,0,0.05,3.95,0)" xlink:href="#at"/><use transform="matrix(0.05,0,0,0.05,13.949999999999998,0)" xlink:href="#aC"/><use transform="matrix(0.05,0,0,0.05,22.95,0)" xlink:href="#aD"/><use transform="matrix(0.05,0,0,0.05,27.950000000000003,0)" xlink:href="#aE"/><use transform="matrix(0.05,0,0,0.05,37.95,0)" xlink:href="#aS"/><use transform="matrix(0.05,0,0,0.05,47.95,0)" xlink:href="#aI"/><use transform="matrix(0.05,0,0,0.05,51.900000000000006,0)" xlink:href="#at"/><use transform="matrix(0.05,0,0,0.05,61.900000000000006,0)" xlink:href="#bg"/><use transform="matrix(0.05,0,0,0.05,70.9,0)" xlink:href="#av"/><use transform="matrix(0.05,0,0,0.05,80.9,0)" xlink:href="#ar"/></g><g id="L"><use transform="matrix(0.05,0,0,0.05,0,0)" xlink:href="#at"/><use transform="matrix(0.05,0,0,0.05,10,0)" xlink:href="#ar"/><use transform="matrix(0.05,0,0,0.05,20,0)" xlink:href="#ar"/><use transform="matrix(0.05,0,0,0.05,30,0)" xlink:href="#av"/><use transform="matrix(0.05,0,0,0.05,40,0)" xlink:href="#ar"/><use transform="matrix(0.05,0,0,0.05,50,0)" xlink:href="#aE"/><use transform="matrix(0.05,0,0,0.05,60,0)" xlink:href="#at"/><use transform="matrix(0.05,0,0,0.05,70,0)" xlink:href="#aD"/></g><g id="M"><use transform="matrix(0.05,0,0,0.05,0,0)" xlink:href="#aG"/><use transform="matrix(0.05,0,0,0.05,9,0)" xlink:href="#aB"/><use transform="matrix(0.05,0,0,0.05,19,0)" xlink:href="#ap"/><use transform="matrix(0.05,0,0,0.05,29,0)" xlink:href="#as"/><use transform="matrix(0.05,0,0,0.05,39,0)" xlink:href="#aD"/></g><g id="N"><use transform="matrix(0.05,0,0,0.05,0,0)" xlink:href="#aF"/><use transform="matrix(0.05,0,0,0.05,5.95,0)" xlink:href="#at"/><use transform="matrix(0.05,0,0,0.05,15.949999999999998,0)" xlink:href="#aD"/><use transform="matrix(0.05,0,0,0.05,20.95,0)" xlink:href="#av"/></g><g id="O"><use transform="matrix(0.05,0,0,0.05,0,0)" xlink:href="#aQ"/><use transform="matrix(0.05,0,0,0.05,14,0)" xlink:href="#aR"/><use transform="matrix(0.05,0,0,0.05,23,0)" xlink:href="#ai"/><use transform="matrix(0.05,0,0,0.05,32,0)" xlink:href="#be"/><use transform="matrix(0.05,0,0,0.05,42.300000000000004,0)" xlink:href="#am"/><use transform="matrix(0.05,0,0,0.05,48.25000000000001,0)" xlink:href="#ba"/><use transform="matrix(0.05,0,0,0.05,56.20000000000002,0)" xlink:href="#aY"/><use transform="matrix(0.05,0,0,0.05,64.15,0)" xlink:href="#bf"/><use transform="matrix(0.05,0,0,0.05,73.15,0)" xlink:href="#ak"/></g><g id="P"><use transform="matrix(0.05,0,0,0.05,0,0)" xlink:href="#aD"/><use transform="matrix(0.05,0,0,0.05,5,0)" xlink:href="#aq"/><use transform="matrix(0.05,0,0,0.05,8.95,0)" xlink:href="#ar"/><use transform="matrix(0.05,0,0,0.05,18.95,0)" xlink:href="#aE"/><use transform="matrix(0.05,0,0,0.05,28.950000000000003,0)" xlink:href="#aC"/><use transform="matrix(0.05,0,0,0.05,37.95,0)" xlink:href="#aS"/><use transform="matrix(0.05,0,0,0.05,47.95,0)" xlink:href="#aD"/></g><g id="Q"><use transform="matrix(0.05,0,0,0.05,0,0)" xlink:href="#aD"/><use transform="matrix(0.05,0,0,0.05,5,0)" xlink:href="#aq"/><use transform="matrix(0.05,0,0,0.05,8.95,0)" xlink:href="#ar"/><use transform="matrix(0.05,0,0,0.05,18.95,0)" xlink:href="#aE"/><use transform="matrix(0.05,0,0,0.05,28.950000000000003,0)" xlink:href="#au"/><use transform="matrix(0.05,0,0,0.05,43.9,0)" xlink:href="#aT"/><use transform="matrix(0.05,0,0,0.05,53.900000000000006,0)" xlink:href="#aU"/></g><path d="M26 75v-336h71v23H56V52h41v23H26" id="bh"/><path d="M3 75V52h41v-290H3v-23h71V75H3" id="bi"/><g id="R"><use transform="matrix(0.05,0,0,0.05,0,0)" xlink:href="#bh"/><use transform="matrix(0.05,0,0,0.05,5,0)" xlink:href="#aD"/><use transform="matrix(0.05,0,0,0.05,10,0)" xlink:href="#aq"/><use transform="matrix(0.05,0,0,0.05,13.949999999999998,0)" xlink:href="#ar"/><use transform="matrix(0.05,0,0,0.05,23.95,0)" xlink:href="#aE"/><use transform="matrix(0.05,0,0,0.05,33.95,0)" xlink:href="#aJ"/><use transform="matrix(0.05,0,0,0.05,38.95,0)" xlink:href="#aC"/><use transform="matrix(0.05,0,0,0.05,47.95,0)" xlink:href="#bi"/></g><g id="S"><use transform="matrix(0.05,0,0,0.05,0,0)" xlink:href="#ak"/><use transform="matrix(0.05,0,0,0.05,7,0)" xlink:href="#aR"/><use transform="matrix(0.05,0,0,0.05,16,0)" xlink:href="#ax"/><use transform="matrix(0.05,0,0,0.05,25,0)" xlink:href="#ay"/><use transform="matrix(0.05,0,0,0.05,30,0)" xlink:href="#aP"/><use transform="matrix(0.05,0,0,0.05,35,0)" xlink:href="#aV"/><use transform="matrix(0.05,0,0,0.05,40.95,0)" xlink:href="#aW"/><use transform="matrix(0.05,0,0,0.05,49.95,0)" xlink:href="#ai"/><use transform="matrix(0.05,0,0,0.05,58.95,0)" xlink:href="#be"/><use transform="matrix(0.05,0,0,0.05,69.25,0)" xlink:href="#am"/><use transform="matrix(0.05,0,0,0.05,75.2,0)" xlink:href="#ba"/><use transform="matrix(0.05,0,0,0.05,83.15,0)" xlink:href="#aY"/><use transform="matrix(0.05,0,0,0.05,91.10000000000001,0)" xlink:href="#bf"/><use transform="matrix(0.05,0,0,0.05,100.10000000000001,0)" xlink:href="#ak"/></g><g id="T"><use transform="matrix(0.05,0,0,0.05,0,0)" xlink:href="#aQ"/><use transform="matrix(0.05,0,0,0.05,14,0)" xlink:href="#ah"/><use transform="matrix(0.05,0,0,0.05,23,0)" xlink:href="#ak"/><use transform="matrix(0.05,0,0,0.05,30,0)" xlink:href="#aP"/><use transform="matrix(0.05,0,0,0.05,35,0)" xlink:href="#aY"/><use transform="matrix(0.05,0,0,0.05,42.95,0)" xlink:href="#aZ"/><use transform="matrix(0.05,0,0,0.05,51.95,0)" xlink:href="#am"/><use transform="matrix(0.05,0,0,0.05,57.900000000000006,0)" xlink:href="#ba"/><use transform="matrix(0.05,0,0,0.05,65.85000000000001,0)" xlink:href="#aP"/><use transform="matrix(0.05,0,0,0.05,70.85000000000001,0)" xlink:href="#bb"/><use transform="matrix(0.05,0,0,0.05,79.85000000000001,0)" xlink:href="#bc"/><use transform="matrix(0.05,0,0,0.05,87.80000000000001,0)" xlink:href="#ai"/><use transform="matrix(0.05,0,0,0.05,96.80000000000001,0)" xlink:href="#be"/><use transform="matrix(0.05,0,0,0.05,107.10000000000001,0)" xlink:href="#am"/><use transform="matrix(0.05,0,0,0.05,113.05000000000001,0)" xlink:href="#ba"/><use transform="matrix(0.05,0,0,0.05,121,0)" xlink:href="#aY"/><use transform="matrix(0.05,0,0,0.05,128.95000000000002,0)" xlink:href="#bf"/><use transform="matrix(0.05,0,0,0.05,137.95000000000002,0)" xlink:href="#ak"/></g><g id="U"><use transform="matrix(0.05,0,0,0.05,0,0)" xlink:href="#aV"/><use transform="matrix(0.05,0,0,0.05,5.95,0)" xlink:href="#ak"/><use transform="matrix(0.05,0,0,0.05,12.949999999999998,0)" xlink:href="#ai"/><use transform="matrix(0.05,0,0,0.05,21.95,0)" xlink:href="#be"/><use transform="matrix(0.05,0,0,0.05,32.25,0)" xlink:href="#am"/><use transform="matrix(0.05,0,0,0.05,38.2,0)" xlink:href="#ba"/><use transform="matrix(0.05,0,0,0.05,46.150000000000006,0)" xlink:href="#aY"/><use transform="matrix(0.05,0,0,0.05,54.1,0)" xlink:href="#bf"/><use transform="matrix(0.05,0,0,0.05,63.1,0)" xlink:href="#ak"/></g><path d="M145-31C134-9 116 4 85 4 32 4 16-35 15-94c0-59 17-99 70-100 32-1 48 14 60 33 0-11-1-24 2-32h30l-1 268h-32zM93-21c41 0 51-33 51-76s-8-73-50-73c-40 0-46 35-46 75s5 74 45 74" id="bj"/><g id="V"><use transform="matrix(0.05,0,0,0.05,0,0)" xlink:href="#aL"/><use transform="matrix(0.05,0,0,0.05,12.950000000000001,0)" xlink:href="#as"/><use transform="matrix(0.05,0,0,0.05,22.950000000000003,0)" xlink:href="#aq"/><use transform="matrix(0.05,0,0,0.05,26.900000000000002,0)" xlink:href="#bj"/><use transform="matrix(0.05,0,0,0.05,36.900000000000006,0)" xlink:href="#ap"/><use transform="matrix(0.05,0,0,0.05,46.900000000000006,0)" xlink:href="#av"/></g><g id="W"><use transform="matrix(0.05,0,0,0.05,0,0)" xlink:href="#aS"/><use transform="matrix(0.05,0,0,0.05,10,0)" xlink:href="#at"/><use transform="matrix(0.05,0,0,0.05,20,0)" xlink:href="#aD"/><use transform="matrix(0.05,0,0,0.05,25,0)" xlink:href="#aA"/></g><g id="X"><use transform="matrix(0.05,0,0,0.05,0,0)" xlink:href="#aJ"/><use transform="matrix(0.05,0,0,0.05,5,0)" xlink:href="#aq"/><use transform="matrix(0.05,0,0,0.05,8.95,0)" xlink:href="#aI"/><use transform="matrix(0.05,0,0,0.05,12.899999999999999,0)" xlink:href="#av"/><use transform="matrix(0.05,0,0,0.05,22.9,0)" xlink:href="#aE"/><use transform="matrix(0.05,0,0,0.05,32.9,0)" xlink:href="#aq"/><use transform="matrix(0.05,0,0,0.05,36.85,0)" xlink:href="#as"/><use transform="matrix(0.05,0,0,0.05,46.85,0)" xlink:href="#aJ"/><use transform="matrix(0.05,0,0,0.05,51.85,0)" xlink:href="#aB"/></g><path d="M177-190C167-65 218 103 67 71c-23-6-38-20-44-43l32-5c15 47 100 32 89-28v-30C133-14 115 1 83 1 29 1 15-40 15-95c0-56 16-97 71-98 29-1 48 16 59 35 1-10 0-23 2-32h30zM94-22c36 0 50-32 50-73 0-42-14-75-50-75-39 0-46 34-46 75s6 73 46 73" id="bk"/><g id="Y"><use transform="matrix(0.05,0,0,0.05,0,0)" xlink:href="#aD"/><use transform="matrix(0.05,0,0,0.05,5,0)" xlink:href="#at"/><use transform="matrix(0.05,0,0,0.05,15,0)" xlink:href="#bk"/><use transform="matrix(0.05,0,0,0.05,25,0)" xlink:href="#aC"/></g><path fill="#333" d="M75-108c48 3 76-12 76-58s-28-57-76-54v112zm111-58c-1 60-46 78-111 74v78l37 5v9H13v-9l28-5v-208l-31-4v-10c81 1 178-14 176 70" id="bl"/><g id="Z"><use transform="matrix(0.05,0,0,0.05,0,0)" xlink:href="#aV"/><use transform="matrix(0.05,0,0,0.05,5.95,0)" xlink:href="#ak"/><use transform="matrix(0.05,0,0,0.05,12.949999999999998,0)" xlink:href="#ai"/><use transform="matrix(0.05,0,0,0.05,21.95,0)" xlink:href="#bl"/><use transform="matrix(0.05,0,0,0.05,31.950000000000003,0)" xlink:href="#bd"/><use transform="matrix(0.05,0,0,0.05,36.95,0)" xlink:href="#ba"/><use transform="matrix(0.05,0,0,0.05,44.900000000000006,0)" xlink:href="#aW"/><use transform="matrix(0.05,0,0,0.05,53.900000000000006,0)" xlink:href="#bd"/><use transform="matrix(0.05,0,0,0.05,58.900000000000006,0)" xlink:href="#aP"/><use transform="matrix(0.05,0,0,0.05,63.900000000000006,0)" xlink:href="#ak"/><use transform="matrix(0.05,0,0,0.05,70.9,0)" xlink:href="#ay"/><use transform="matrix(0.05,0,0,0.05,75.9,0)" xlink:href="#ak"/></g><g id="aa"><use transform="matrix(0.05,0,0,0.05,0,0)" xlink:href="#bh"/><use transform="matrix(0.05,0,0,0.05,5,0)" xlink:href="#aJ"/><use transform="matrix(0.05,0,0,0.05,10,0)" xlink:href="#aC"/><use transform="matrix(0.05,0,0,0.05,19,0)" xlink:href="#aE"/><use transform="matrix(0.05,0,0,0.05,29,0)" xlink:href="#aq"/><use transform="matrix(0.05,0,0,0.05,32.95,0)" xlink:href="#ar"/><use transform="matrix(0.05,0,0,0.05,42.95,0)" xlink:href="#aC"/><use transform="matrix(0.05,0,0,0.05,51.95,0)" xlink:href="#bi"/></g><g id="ab"><use transform="matrix(0.05,0,0,0.05,0,0)" xlink:href="#aL"/><use transform="matrix(0.05,0,0,0.05,12.950000000000001,0)" xlink:href="#as"/><use transform="matrix(0.05,0,0,0.05,22.950000000000003,0)" xlink:href="#aq"/><use transform="matrix(0.05,0,0,0.05,26.900000000000002,0)" xlink:href="#bj"/></g><g id="ac"><use transform="matrix(0.05,0,0,0.05,0,0)" xlink:href="#ah"/><use transform="matrix(0.05,0,0,0.05,9,0)" xlink:href="#ai"/><use transform="matrix(0.05,0,0,0.05,18,0)" xlink:href="#bl"/><use transform="matrix(0.05,0,0,0.05,28,0)" xlink:href="#bd"/><use transform="matrix(0.05,0,0,0.05,33,0)" xlink:href="#ba"/><use transform="matrix(0.05,0,0,0.05,40.95,0)" xlink:href="#aW"/><use transform="matrix(0.05,0,0,0.05,49.95,0)" xlink:href="#bd"/><use transform="matrix(0.05,0,0,0.05,54.95,0)" xlink:href="#aP"/><use transform="matrix(0.05,0,0,0.05,59.95,0)" xlink:href="#ak"/><use transform="matrix(0.05,0,0,0.05,66.95,0)" xlink:href="#ay"/><use transform="matrix(0.05,0,0,0.05,71.95,0)" xlink:href="#ak"/></g><g id="ad"><use transform="matrix(0.05,0,0,0.05,0,0)" xlink:href="#aS"/><use transform="matrix(0.05,0,0,0.05,10,0)" xlink:href="#aI"/><use transform="matrix(0.05,0,0,0.05,13.949999999999998,0)" xlink:href="#aq"/><use transform="matrix(0.05,0,0,0.05,17.9,0)" xlink:href="#ar"/></g><g id="ae"><use transform="matrix(0.05,0,0,0.05,0,0)" xlink:href="#bh"/><use transform="matrix(0.05,0,0,0.05,5,0)" xlink:href="#aD"/><use transform="matrix(0.05,0,0,0.05,10,0)" xlink:href="#aq"/><use transform="matrix(0.05,0,0,0.05,13.949999999999998,0)" xlink:href="#ar"/><use transform="matrix(0.05,0,0,0.05,23.95,0)" xlink:href="#aC"/><use transform="matrix(0.05,0,0,0.05,32.95,0)" xlink:href="#bi"/></g><g id="af"><use transform="matrix(0.05,0,0,0.05,0,0)" xlink:href="#aG"/><use transform="matrix(0.05,0,0,0.05,9,0)" xlink:href="#aF"/><use transform="matrix(0.05,0,0,0.05,14.949999999999998,0)" xlink:href="#av"/><use transform="matrix(0.05,0,0,0.05,24.95,0)" xlink:href="#at"/><use transform="matrix(0.05,0,0,0.05,34.95,0)" xlink:href="#aD"/><use transform="matrix(0.05,0,0,0.05,39.95,0)" xlink:href="#av"/><use transform="matrix(0.05,0,0,0.05,49.95,0)" xlink:href="#ar"/><use transform="matrix(0.05,0,0,0.05,59.95,0)" xlink:href="#aE"/><use transform="matrix(0.05,0,0,0.05,69.95,0)" xlink:href="#at"/><use transform="matrix(0.05,0,0,0.05,79.95,0)" xlink:href="#aD"/></g><g id="ag"><use transform="matrix(0.05,0,0,0.05,0,0)" xlink:href="#au"/><use transform="matrix(0.05,0,0,0.05,14.950000000000001,0)" xlink:href="#aB"/><use transform="matrix(0.05,0,0,0.05,24.950000000000003,0)" xlink:href="#ar"/><use transform="matrix(0.05,0,0,0.05,34.95,0)" xlink:href="#aq"/><use transform="matrix(0.05,0,0,0.05,38.900000000000006,0)" xlink:href="#aJ"/><use transform="matrix(0.05,0,0,0.05,43.900000000000006,0)" xlink:href="#aq"/><use transform="matrix(0.05,0,0,0.05,47.85000000000001,0)" xlink:href="#av"/><use transform="matrix(0.05,0,0,0.05,57.85,0)" xlink:href="#ar"/><use transform="matrix(0.05,0,0,0.05,67.85000000000001,0)" xlink:href="#aE"/><use transform="matrix(0.05,0,0,0.05,77.85000000000001,0)" xlink:href="#at"/><use transform="matrix(0.05,0,0,0.05,87.85000000000001,0)" xlink:href="#aD"/></g></defs></g></svg>